<svg width="current" height="current" viewBox="0 0 18 25" fill="none" xmlns="http://www.w3.org/2000/svg">
<path d="M15.7812 0.532654C16.0572 0.532918 16.2812 0.756674 16.2812 1.03265V2.19769H17.5C17.7761 2.19769 18.001 2.42155 18.001 2.69769V22.3676C18.0007 22.6435 17.776 22.8676 17.5 22.8676H16.2812V24.0327C16.281 24.3084 16.057 24.5324 15.7812 24.5327H2.21973C1.94381 24.5324 1.7207 24.3077 1.7207 24.0317V22.8676H0.500977C0.224834 22.8676 0 22.6428 0 22.3666V2.69672C0.000263141 2.4208 0.224997 2.19769 0.500977 2.19769H1.7207V1.03168C1.72097 0.755922 1.94397 0.532918 2.21973 0.532654H15.7812Z" fill="#FB5709"/>
<path d="M10.3857 13.7351L10.2896 15.5734L12.8438 15.501L12.6654 18.7647L8.35817 18.9903L8.35817 17.2587L5.91852 17.3972L6.03344 15.1988L3.80423 15.3104L4.05288 10.5536L6.28209 10.442L6.39403 8.30053L8.83368 8.16202L8.9367 6.19107L13.2245 5.95913L13.0452 9.38933L10.6056 9.52785L10.5026 11.4988L8.27336 11.6103L8.15647 13.8466L10.3857 13.7351Z" fill="white"/>
</svg>
