<svg width="current" height="current" viewBox="0 0 18 17" fill="none" xmlns="http://www.w3.org/2000/svg">
<path d="M15.0183 0.454956C16.2656 -0.0272658 17.4943 1.20078 17.0124 2.44812L13.4431 11.7274C13.2309 12.2737 12.8067 12.6978 12.2605 12.91L2.98117 16.4794C1.73378 16.9614 0.505766 15.7326 0.988007 14.4852L4.55637 5.20691C4.76856 4.66034 5.19339 4.23551 5.73996 4.02332L15.0183 0.454956ZM8.99973 6.40906C8.4541 6.40912 7.93048 6.62579 7.54465 7.0116C7.15884 7.39741 6.94219 7.92106 6.94211 8.46667C6.94211 9.01227 7.15893 9.53589 7.54465 9.92175C7.93048 10.3076 8.45408 10.5242 8.99973 10.5243C9.54545 10.5243 10.0689 10.3076 10.4548 9.92175C10.8407 9.53587 11.0573 9.01238 11.0573 8.46667C11.0573 7.92106 10.8406 7.39741 10.4548 7.0116C10.0689 6.62588 9.54532 6.40906 8.99973 6.40906Z" fill="#FB5709"/>
</svg>
