<svg width="current" height="current" viewBox="0 0 100 101" fill="none" xmlns="http://www.w3.org/2000/svg">
<path d="M47.06 46.385C48.24 46.215 49.44 46.125 50.64 46.125C51.84 46.125 53.04 46.215 54.22 46.385C58.73 45.485 62.54 42.915 64.81 39.445C66.23 37.265 67.05 34.735 67.05 32.035C67.05 29.335 66.23 26.805 64.81 24.625C61.96 20.265 56.67 17.325 50.63 17.325C44.59 17.325 39.3 20.265 36.45 24.625C35.03 26.805 34.21 29.335 34.21 32.035C34.21 34.735 35.03 37.265 36.45 39.445C38.72 42.915 42.54 45.485 47.04 46.385H47.06Z" fill="black"/>
<path d="M54.2699 48.655C53.0999 48.865 51.8799 48.965 50.6399 48.975C50.3599 48.975 50.0899 48.955 49.8099 48.935C50.0899 48.945 50.3599 48.975 50.6399 48.975C51.8799 48.975 53.0899 48.865 54.2699 48.655C53.0799 48.455 51.8699 48.355 50.6399 48.355C49.4099 48.355 48.1999 48.455 47.0099 48.655C43.2999 49.275 39.8199 50.835 36.6999 53.135C29.5699 58.385 24.3299 67.485 22.6699 78.285C26.2199 83.185 45.7199 83.675 45.7199 83.675C46.8899 83.635 48.1099 83.615 49.3499 83.615C50.5899 83.615 51.7999 83.635 52.9799 83.675C56.6899 83.565 60.1699 83.285 63.2899 82.865C70.4199 81.915 75.6599 80.255 77.3299 78.285C73.7699 51.305 54.2699 48.655 54.2699 48.655Z" fill="black"/>
</svg>
