<svg width="current" height="current" viewBox="0 0 168 169" fill="none" xmlns="http://www.w3.org/2000/svg">
<circle cx="84" cy="84.5" r="82.5" stroke="white" stroke-width="3"/>
<g clip-path="url(#clip0_314_4158)">
<path d="M62.1634 115.081C59.8787 111.805 58.5423 107.854 58.5423 103.603C58.5423 99.3524 59.8787 95.4013 62.1634 92.1254C58.5798 87.479 52.8765 84.4731 46.4509 84.4731C35.6044 84.4731 26.811 93.0383 26.811 103.603C26.811 112.826 33.5125 120.524 42.4306 122.331C43.749 122.107 45.0896 121.989 46.4495 121.989C47.8095 121.989 49.1515 122.107 50.4685 122.331C55.2221 121.368 59.3464 118.731 62.162 115.081H62.1634Z" fill="white"/>
<path d="M45.8243 158.447C47.1802 149.579 50.3257 141.425 55.0128 134.843C57.0895 131.928 59.3963 129.424 61.9028 127.355C58.4148 124.767 54.5581 123.026 50.4713 122.332C49.1737 122.596 47.829 122.733 46.4523 122.733C45.0757 122.733 43.731 122.594 42.4334 122.332C33.6539 123.824 25.9349 130.14 20.6572 139.336C27.7122 147.142 36.2422 153.65 45.8257 158.447H45.8243Z" fill="white"/>
<path d="M42.4319 122.331C43.7295 122.594 45.0742 122.732 46.4508 122.732C47.8274 122.732 49.1721 122.593 50.4697 122.331C49.1513 122.107 47.8108 121.989 46.4508 121.989C45.0908 121.989 43.7489 122.107 42.4319 122.331Z" fill="white"/>
<path d="M96.9736 115.081C99.7878 118.731 103.912 121.368 108.667 122.331C109.985 122.107 111.326 121.989 112.686 121.989C114.046 121.989 115.388 122.107 116.705 122.331C125.623 120.524 132.325 112.826 132.325 103.603C132.325 93.0383 123.531 84.4731 112.685 84.4731C106.259 84.4731 100.556 87.479 96.9722 92.1254C99.2568 95.4013 100.593 99.3537 100.593 103.603C100.593 107.853 99.2568 111.805 96.9722 115.081H96.9736Z" fill="white"/>
<path d="M116.706 122.331C115.409 122.594 114.064 122.732 112.688 122.732C111.311 122.732 109.966 122.593 108.669 122.331C104.582 123.025 100.725 124.765 97.2371 127.354C99.7435 129.423 102.05 131.926 104.127 134.842C109.554 142.464 112.918 152.196 113.824 162.7C124.252 159.041 133.739 153.464 141.836 146.406C136.841 133.436 127.588 124.179 116.706 122.331Z" fill="white"/>
<path d="M108.667 122.331C109.965 122.594 111.31 122.732 112.686 122.732C114.063 122.732 115.407 122.593 116.705 122.331C115.387 122.107 114.046 121.989 112.686 121.989C111.326 121.989 109.984 122.107 108.667 122.331Z" fill="white"/>
<path d="M95.3308 94.6452C92.1603 89.3721 86.2823 85.8235 79.5698 85.8235C72.8573 85.8235 66.9793 89.3721 63.8088 94.6452C62.2257 97.2769 61.3176 100.338 61.3176 103.603C61.3176 106.868 62.227 109.928 63.8088 112.561C66.3333 116.759 70.574 119.864 75.5856 120.955C76.8998 120.747 78.2279 120.639 79.5698 120.639C80.9118 120.639 82.2398 120.747 83.5541 120.955C88.567 119.864 92.8063 116.759 95.3308 112.561C96.914 109.93 97.822 106.868 97.822 103.603C97.822 100.338 96.9126 97.2769 95.3308 94.6452Z" fill="white"/>
<path d="M95.073 129.11C91.6003 126.329 87.7256 124.451 83.6055 123.703C82.2995 123.951 80.9507 124.082 79.5699 124.082C78.1891 124.082 76.8416 123.951 75.5343 123.703C71.4142 124.451 67.5395 126.329 64.0668 129.11C56.1149 135.474 50.2743 146.573 48.4458 159.703C57.9836 164.082 68.4877 166.793 79.5616 167.451C79.5671 167.799 79.5713 168.149 79.5713 168.5C79.5713 168.149 79.5754 167.8 79.581 167.452C81.3236 167.555 83.08 167.609 84.849 167.609C94.0125 167.609 102.839 166.203 111.115 163.604C109.987 148.785 103.803 136.096 95.0744 129.11H95.073Z" fill="white"/>
<path d="M75.533 123.703C76.8389 123.951 78.1877 124.082 79.5685 124.082C80.9493 124.082 82.2968 123.951 83.6041 123.703C82.2829 123.462 80.9354 123.34 79.5685 123.34C78.2016 123.34 76.8541 123.464 75.533 123.703Z" fill="white"/>
</g>
<defs>
<clipPath id="clip0_314_4158">
<rect width="121.18" height="85.3771" fill="white" transform="translate(20.6558 83.1228)"/>
</clipPath>
</defs>
</svg>
