<svg width="156" height="157" viewBox="0 0 156 157" fill="none" xmlns="http://www.w3.org/2000/svg">
<g filter="url(#filter0_d_417_2084)">
<path d="M136.82 0.270874H19.1801C10.7964 0.270874 4 7.06723 4 15.451V133.091C4 141.475 10.7964 148.271 19.1801 148.271H136.82C145.204 148.271 152 141.475 152 133.091V15.451C152 7.06723 145.204 0.270874 136.82 0.270874Z" fill="url(#paint0_linear_417_2084)"/>
<path d="M46.7365 93.4355L42.8696 73.9341C40.5123 66.5206 35.9013 66.2804 31.2361 61.2738C24.8306 54.3973 22.909 42.7803 27.9415 34.804C32.8304 27.0538 42.0642 26.7453 48.7994 32.7623C56.1917 39.3679 58.3771 49.8711 55.099 58.7705C52.0469 67.0576 50.5044 66.9916 52.9536 76.4303C54.4043 82.0234 56.4766 87.4987 57.7412 93.1482L59.896 100.477C60.181 100.538 60.3435 100.31 60.5107 100.14L71.367 73.8046C72.8931 71.7369 75.7449 71.0163 78.3448 71.1458C83.5234 71.4048 84.3735 74.073 86.0196 77.9163C89.107 85.1225 91.5985 92.583 94.4975 99.8575C94.7071 100.406 95.3641 100.67 95.9293 100.378L103.291 72.8578C103.953 66.3841 100.14 66.304 97.1939 61.9026C91.9188 54.0182 98.1383 39.5163 99.7985 30.9843C100.891 28.8671 104.605 29.1827 105.467 31.314C104.551 37.9173 102.601 44.4099 102.057 51.0462C102.368 55.2357 107.695 56.5733 109.082 51.8398C110.801 45.9712 111.135 39.0877 112.706 33.1414C113.106 31.6295 113.438 30.4167 115.454 30.4567C118.052 30.5086 118.697 31.8132 118.506 33.9586C117.941 40.3217 115.784 47.0734 115.332 53.5283C116.625 58.071 122.166 56.0717 122.599 52.0612L125.569 33.4381C126.509 31.7826 130.495 31.8603 130.82 33.7749C131.004 34.8535 130.889 36.9117 130.835 38.0774C130.637 42.2174 130.135 47.111 129.577 51.2346C128.826 56.7782 127.719 62.3759 122.703 66.0214C119.712 68.195 116.726 68.1809 115.155 72.003C110.681 86.4648 108.7 102.269 104.16 116.622C103.176 119.736 101.826 122.665 97.9452 123.153C93.1787 123.753 90.6566 122.185 88.8456 118.271C85.1295 110.241 82.6497 100.955 79.1337 92.6961C78.8865 92.1144 78.3495 90.2893 77.6007 90.3411L76.9907 90.5931L66.351 118.728C64.6389 122.369 61.7494 123.716 57.4539 123.195C54.0133 122.778 52.6027 120.129 51.7243 117.353L46.7389 93.4355H46.7365Z" fill="white"/>
<path d="M46.6825 93.1553C47.8718 92.8186 49.2871 92.6726 50.8108 93.0447C53.7191 93.7582 55.9752 92.7126 57.3764 91.6152C56.1047 86.5049 54.2749 81.5171 52.9538 76.4328C50.5046 66.9917 52.0495 67.06 55.0991 58.7729C58.3749 49.8735 56.1918 39.3703 48.7996 32.7647C42.0644 26.7454 32.8306 27.0562 27.9417 34.8064C22.9091 42.7827 24.8284 54.3997 31.2363 61.2762C35.9015 66.2829 40.5125 66.5231 42.8698 73.9365L46.6825 93.1553Z" fill="#FECEAA"/>
<path d="M38.9723 53.3517C37.816 52.4733 36.3183 49.5155 37.3474 48.2085C38.2517 47.0593 39.9072 47.7752 40.6255 48.7713C41.5416 50.0406 41.2378 51.4442 40.8162 52.803C40.7974 52.8595 40.6961 52.9184 40.8351 52.982C40.9905 53.055 42.1068 53.022 42.3375 52.9773C46.4069 52.2119 48.7949 45.5026 45.359 42.7567C44.9516 42.4318 43.8118 42.281 43.8447 41.7017C43.9083 40.6302 45.6792 41.5604 46.1173 41.8595C50.9355 45.14 47.5279 54.1736 41.9207 54.2254C41.3461 54.2301 40.8633 54.0229 40.3052 53.9993C39.0759 55.8197 37.564 57.3033 35.5623 58.25C34.9029 58.5609 32.9648 59.2744 32.4302 58.5091C32.0063 57.9015 33.4452 57.6943 33.789 57.5624C35.9297 56.7452 37.7972 55.3558 38.9699 53.3517H38.9723ZM39.521 52.1742C39.9166 51.2958 40.0697 50.0077 39.4433 49.1999C39.1018 48.7572 38.3883 48.053 38.1198 48.9621C37.9243 49.6191 38.9017 51.7668 39.521 52.1742Z" fill="url(#paint1_linear_417_2084)"/>
<path d="M36.4031 42.1586C37.0602 41.2425 38.5791 42.7944 38.2141 43.8023C37.7266 45.147 35.6731 43.1759 36.4031 42.1586Z" fill="url(#paint2_linear_417_2084)"/>
<path d="M39.5939 39.2314C40.2391 38.4025 41.7157 39.8531 41.4119 40.8163C40.9503 42.2787 38.8097 40.2417 39.5939 39.2314Z" fill="url(#paint3_linear_417_2084)"/>
</g>
<defs>
<filter id="filter0_d_417_2084" x="0" y="0.270874" width="156" height="156" filterUnits="userSpaceOnUse" color-interpolation-filters="sRGB">
<feFlood flood-opacity="0" result="BackgroundImageFix"/>
<feColorMatrix in="SourceAlpha" type="matrix" values="0 0 0 0 0 0 0 0 0 0 0 0 0 0 0 0 0 0 127 0" result="hardAlpha"/>
<feOffset dy="4"/>
<feGaussianBlur stdDeviation="2"/>
<feComposite in2="hardAlpha" operator="out"/>
<feColorMatrix type="matrix" values="0 0 0 0 0 0 0 0 0 0 0 0 0 0 0 0 0 0 0.25 0"/>
<feBlend mode="normal" in2="BackgroundImageFix" result="effect1_dropShadow_417_2084"/>
<feBlend mode="normal" in="SourceGraphic" in2="effect1_dropShadow_417_2084" result="shape"/>
</filter>
<linearGradient id="paint0_linear_417_2084" x1="163.187" y1="132.043" x2="-43.7407" y2="0.270865" gradientUnits="userSpaceOnUse">
<stop offset="0.446442" stop-color="#FB5709"/>
<stop offset="0.990385" stop-color="#E97235" stop-opacity="0.92"/>
</linearGradient>
<linearGradient id="paint1_linear_417_2084" x1="49.6309" y1="56.9157" x2="25.9995" y2="43.2209" gradientUnits="userSpaceOnUse">
<stop offset="0.446442" stop-color="#FB5709"/>
<stop offset="0.990385" stop-color="#E97235" stop-opacity="0.92"/>
</linearGradient>
<linearGradient id="paint2_linear_417_2084" x1="38.4228" y1="43.996" x2="35.3509" y2="42.3315" gradientUnits="userSpaceOnUse">
<stop offset="0.446442" stop-color="#FB5709"/>
<stop offset="0.990385" stop-color="#E97235" stop-opacity="0.92"/>
</linearGradient>
<linearGradient id="paint3_linear_417_2084" x1="41.606" y1="41.0708" x2="38.5482" y2="39.3837" gradientUnits="userSpaceOnUse">
<stop offset="0.446442" stop-color="#FB5709"/>
<stop offset="0.990385" stop-color="#E97235" stop-opacity="0.92"/>
</linearGradient>
</defs>
</svg>
