<svg width="current" height="current" viewBox="0 0 78 11" fill="none" xmlns="http://www.w3.org/2000/svg">
<path fill-rule="evenodd" clip-rule="evenodd" d="M32.6828 5.14335V5.12188C32.6828 2.84129 34.3524 0.973633 36.7284 0.973633C38.1745 0.973633 39.0476 1.48885 39.7985 2.22252L38.913 3.26559C38.2856 2.66955 37.6126 2.26925 36.7161 2.26925C35.2255 2.26925 34.1277 3.52951 34.1277 5.09915V5.12188C34.1277 6.69152 35.2144 7.96315 36.7161 7.96315C37.6793 7.96315 38.2956 7.57295 38.9686 6.93145L39.854 7.84824C39.0365 8.71956 38.14 9.26887 36.6716 9.26887C34.3858 9.26887 32.6828 7.44667 32.6828 5.14335ZM0.0783691 1.11128H1.45654V4.44629H5.19959V1.11128H6.57777V9.13249H5.19959V5.75201H1.45654V9.13249H0.0783691V1.11128ZM12.2695 3.08249L10.7222 7.25725L9.17478 3.08249H7.7176L9.53296 8.52256H10.3233L9.35268 10.9736H10.8333L13.7502 3.08249H12.2695ZM15.8953 3.08249H14.5393V10.9661H15.8953V8.19298C16.309 8.75492 16.9252 9.25877 17.9119 9.25877C19.3123 9.25877 20.6571 8.12479 20.6571 6.11949V6.09676C20.6571 4.08009 19.3012 2.95747 17.9119 2.95747C16.9487 2.95747 16.3325 3.46132 15.8953 4.09145V3.08249ZM19.279 6.09676V6.11949C19.279 7.31155 18.5059 8.0566 17.5871 8.0566C16.6684 8.0566 15.8619 7.27746 15.8619 6.11949V6.09676C15.8619 4.93878 16.6684 4.15964 17.5871 4.15964C18.5059 4.15964 19.279 4.92741 19.279 6.09676ZM21.3203 6.12958V6.10686C21.3203 4.37684 22.5194 2.95621 24.2113 2.95621C26.0945 2.95621 27.0467 4.46902 27.0467 6.2104C27.0467 6.32697 27.0371 6.44354 27.0269 6.56904L27.0244 6.60061H22.6762C22.822 7.58558 23.5049 8.13616 24.3792 8.13616C25.0399 8.13616 25.5116 7.8836 25.9821 7.41384L26.7774 8.13616C26.2168 8.82311 25.4437 9.27013 24.3569 9.27013C22.6429 9.27013 21.3203 7.99851 21.3203 6.13085V6.12958ZM25.7018 5.68256C25.6116 4.78851 25.0967 4.09019 24.2001 4.09019C23.3702 4.09019 22.7886 4.74305 22.6651 5.68256H25.7018ZM29.3547 3.08249H27.9988V9.13376H29.3547V6.83044C29.3547 5.22544 30.1833 4.43493 31.3713 4.43493H31.4503V2.96757C30.4081 2.92211 29.724 3.54088 29.3547 4.44629V3.08249ZM42.1399 1.11128H40.7616H40.7604V9.13249H46.2633V7.8495H42.1399V1.11128ZM46.3657 5.14461V5.12188C46.3657 2.86402 48.0687 0.973633 50.4781 0.973633C52.8874 0.973633 54.5681 2.84129 54.5681 5.09915V5.12188C54.5681 7.37974 52.8651 9.27013 50.4558 9.27013C48.0465 9.27013 46.3657 7.40247 46.3657 5.14461ZM53.1233 5.14335V5.12188C53.1233 3.56361 52.0143 2.26799 50.4558 2.26799C48.8974 2.26799 47.8106 3.53962 47.8106 5.09789V5.12062C47.8106 6.6789 48.9196 7.96188 50.4781 7.96188C52.0365 7.96188 53.1233 6.70163 53.1233 5.14335ZM55.9352 1.11128H54.4113L57.6715 9.18931H58.8928L62.1432 1.11128H60.6526L58.3001 7.27619L55.9352 1.11128ZM64.3623 1.05445H65.6392L69.0908 9.13249H67.6336L66.8383 7.19537H63.1286L62.3222 9.13249H60.9107L64.3623 1.05445ZM66.3344 5.94775L64.9786 2.73901L63.6337 5.94775H66.3344ZM74.8085 4.50312L77.9353 9.13249H76.4188L74.4467 6.21166L72.4733 9.13249H70.958L73.6885 5.08905L70.963 1.05319H72.4795L74.4467 3.96643L76.4139 1.05319H77.9304L75.9594 3.97022L75.589 4.50312H74.8085Z" fill="url(#paint0_linear_571_2553)"/>
<defs>
<linearGradient id="paint0_linear_571_2553" x1="1.77886" y1="5.09284" x2="75.3927" y2="5.09284" gradientUnits="userSpaceOnUse">
<stop stop-color="#FF0088"/>
<stop offset="0.53" stop-color="#A94EFF"/>
<stop offset="1" stop-color="#00CFFF"/>
</linearGradient>
</defs>
</svg>
