<svg width="current" height="current" viewBox="0 0 156 157" fill="none" xmlns="http://www.w3.org/2000/svg">
<g filter="url(#filter0_d_314_3038)">
<path d="M124 0.5H32C16.536 0.5 4 13.036 4 28.5V120.5C4 135.964 16.536 148.5 32 148.5H124C139.464 148.5 152 135.964 152 120.5V28.5C152 13.036 139.464 0.5 124 0.5Z" fill="url(#paint0_linear_314_3038)"/>
<path d="M40.0699 32.93C40.6099 32.81 41.1499 32.81 41.6999 32.84C44.4599 32.97 52.4599 34.89 57.7899 45.76C64.2399 58.92 55.8999 66.72 56.7999 71.11C57.6999 75.5 64.2899 91.21 64.2899 91.21C64.2899 91.21 65.7999 95.3 67.8599 90.44C69.9199 85.58 74.9299 73.32 77.5799 72.13C78.0899 71.9 79.0099 71.86 79.5799 72.09C81.1599 72.72 81.8399 73.46 82.5599 74.81C84.5399 78.5 88.9299 88.37 92.1699 94.74C92.1699 94.74 93.3399 98.33 94.9299 95.97C96.5199 93.6 105.5 71.88 101.44 68.27C97.3799 64.66 96.5399 61.95 96.9199 56.46C97.3099 50.98 101.44 35.49 101.44 35.49C101.44 35.49 102.2 33.68 103.84 33.94C105.47 34.2 105.82 35.38 105.15 37.92C104.48 40.46 101.28 53.08 102.5 56.53C103.72 59.98 107.1 58.27 107.66 56.04C108.22 53.81 111.28 36.88 111.28 36.88C111.28 36.88 111.6 33.93 113.18 33.93C115.12 33.93 115.48 35.33 115.02 37.99C114.56 40.65 111.81 55.77 113.36 58.18C114.91 60.59 117.69 58.91 118.25 57.36C118.81 55.81 121.43 37.36 121.43 37.36C121.43 37.36 121.8 34.43 123.34 34.43C124.88 34.43 125.21 34.58 125.06 38.67C124.91 42.76 123.73 59.2 123.73 59.2C123.73 59.2 123.06 66.38 113.49 70.99C112.7 71.37 112.03 71.96 111.53 72.68C110.58 74.03 109.17 76.54 108.14 80.49C106.54 86.63 99.6499 109.25 98.9899 111.42C98.9499 111.56 98.8999 111.68 98.8499 111.82C98.4899 112.69 97.0299 116.3 94.3799 115.99C91.7299 115.68 89.9699 111.81 89.8199 111.33C89.8099 111.3 89.7999 111.27 89.7899 111.24L80.7799 88.74C80.7799 88.74 79.6199 86.03 78.9399 86.03C78.2599 86.03 67.6399 113.28 67.6399 113.28C67.6399 113.28 66.4799 116.25 64.7699 116.22C63.2199 116.19 61.8699 112.35 61.4499 110.19C61.0499 107.78 53.1899 80.74 52.3299 77.79C52.2699 77.57 52.1899 77.37 52.0999 77.17C51.4999 75.81 49.0599 71.03 43.8399 69.45C37.7299 67.6 29.9399 58.22 30.9799 46.69C31.9399 35.97 36.6599 33.73 40.0699 32.98V32.93Z" fill="white"/>
<path d="M62.5799 87.74C60.6799 83.06 55.9799 72.78 56.1199 69.83C56.3799 64.57 63.1999 58.24 57.0599 45.72C51.9899 35.38 44.3799 33.56 41.7599 33.43C41.2399 33.41 40.7199 33.41 40.2099 33.52C36.9699 34.23 32.4799 36.37 31.5699 46.56C30.5899 57.53 37.9299 66.8 43.7399 68.56C48.7099 70.06 51.0899 74.26 51.6599 75.55C51.7499 75.75 51.8599 75.94 51.9599 76.13C52.6599 77.43 55.0299 85.93 56.9399 92.57C56.9399 92.57 57.4999 90.37 58.8799 88.98C60.2599 87.59 61.7499 88.96 62.5799 87.74Z" fill="#F4B695"/>
</g>
<defs>
<filter id="filter0_d_314_3038" x="0" y="0.5" width="156" height="156" filterUnits="userSpaceOnUse" color-interpolation-filters="sRGB">
<feFlood flood-opacity="0" result="BackgroundImageFix"/>
<feColorMatrix in="SourceAlpha" type="matrix" values="0 0 0 0 0 0 0 0 0 0 0 0 0 0 0 0 0 0 127 0" result="hardAlpha"/>
<feOffset dy="4"/>
<feGaussianBlur stdDeviation="2"/>
<feComposite in2="hardAlpha" operator="out"/>
<feColorMatrix type="matrix" values="0 0 0 0 0 0 0 0 0 0 0 0 0 0 0 0 0 0 0.25 0"/>
<feBlend mode="normal" in2="BackgroundImageFix" result="effect1_dropShadow_314_3038"/>
<feBlend mode="normal" in="SourceGraphic" in2="effect1_dropShadow_314_3038" result="shape"/>
</filter>
<linearGradient id="paint0_linear_314_3038" x1="163.187" y1="132.272" x2="-43.7407" y2="0.499991" gradientUnits="userSpaceOnUse">
<stop offset="0.446442" stop-color="#FB5709"/>
<stop offset="0.990385" stop-color="#E97235" stop-opacity="0.92"/>
</linearGradient>
</defs>
</svg>
